<?xml version="1.0" encoding="UTF-8"?>
<svg width="30px" height="48px" viewBox="0 0 30 48" version="1.1" xmlns="http://www.w3.org/2000/svg" xmlns:xlink="http://www.w3.org/1999/xlink">
    <!-- Generator: sketchtool 40.2 (33826) - http://www.bohemiancoding.com/sketch -->
    <title>9BBD9D82-3C6C-4353-9FFD-20A0A2E56D83</title>
    <desc>Created with sketchtool.</desc>
    <defs></defs>
    <g id="DESIGNS" stroke="none" stroke-width="1" fill="none" fill-rule="evenodd">
        <g id="Pages-|-Design-01" transform="translate(-635.000000, -678.000000)" fill="#FFFFFF">
            <g id="D01_SECTION-1-|-Header">
                <g id="mouse-icon" transform="translate(635.000000, 678.000000)">
                    <path d="M15,0 C6.715,0 0,6.0435 0,13.5 L0,34.5 C0,41.9565 6.715,48 15,48 C23.285,48 30,41.9565 30,34.5 L30,13.5 C30,6.0435 23.285,0 15,0 L15,0 Z M26.6666667,34.5 C26.6666667,40.299 21.4433333,45 15,45 C8.55666667,45 3.33333333,40.299 3.33333333,34.5 L3.33333333,13.5 C3.33333333,7.701 8.55666667,3 15,3 C21.4433333,3 26.6666667,7.701 26.6666667,13.5 L26.6666667,34.5 L26.6666667,34.5 Z" id="Shape"></path>
                    <circle id="Oval-13" cx="15" cy="15" r="2"></circle>
                </g>
            </g>
        </g>
    </g>
</svg>