<?xml version="1.0" encoding="UTF-8"?>
<svg width="6px" height="10px" viewBox="0 0 6 10" version="1.1" xmlns="http://www.w3.org/2000/svg" xmlns:xlink="http://www.w3.org/1999/xlink">
    <!-- Generator: sketchtool 40.2 (33826) - http://www.bohemiancoding.com/sketch -->
    <title>BEF61812-AA55-4A74-AE42-C0A1C23D9E83</title>
    <desc>Created with sketchtool.</desc>
    <defs></defs>
    <g id="DESIGNS" stroke="none" stroke-width="1" fill="none" fill-rule="evenodd">
        <g id="Pages-|-Design-01" transform="translate(-234.000000, -1274.000000)" fill="#231F20">
            <g id="D01_SECTION-3-|-Icon-Summary" transform="translate(0.000000, 1105.000000)">
                <g id="right-icon" transform="translate(237.000000, 174.000000) scale(-1, 1) translate(-237.000000, -174.000000) translate(234.000000, 169.000000)">
                    <path d="M1.58830508,4.98616129 L5.91461017,0.869225806 C6.01389831,0.774741935 6.01389831,0.621548387 5.91461017,0.527096774 L5.43522034,0.0708709677 C5.38755932,0.025483871 5.32288136,0 5.25545763,0 C5.1880339,0 5.12335593,0.025483871 5.07569492,0.0708709677 L0.0902033898,4.81509677 C-0.00908474576,4.90958065 -0.00908474576,5.06277419 0.0902033898,5.15722581 L5.07566102,9.90145161 C5.12332203,9.94683871 5.188,9.97232258 5.25542373,9.97232258 C5.32284746,9.97232258 5.38752542,9.94683871 5.43518644,9.90145161 L5.91457627,9.44522581 C6.01386441,9.35074194 6.01386441,9.19754839 5.91457627,9.10309677 L1.58830508,4.98616129 L1.58830508,4.98616129 Z" id="Shape"></path>
                </g>
            </g>
        </g>
    </g>
</svg>