<?xml version="1.0" encoding="UTF-8"?>
<svg width="14px" height="14px" viewBox="0 0 14 14" version="1.1" xmlns="http://www.w3.org/2000/svg" xmlns:xlink="http://www.w3.org/1999/xlink">
    <!-- Generator: sketchtool 40.2 (33826) - http://www.bohemiancoding.com/sketch -->
    <title>BDCBB0C3-55F0-4117-A45E-CBC562FB1AA6</title>
    <desc>Created with sketchtool.</desc>
    <defs></defs>
    <g id="DESIGNS" stroke="none" stroke-width="1" fill="none" fill-rule="evenodd">
        <g id="Pages-|-Design-01" transform="translate(-1205.000000, -46.000000)" fill="#969695">
            <g id="D01_SECTION-1-|-Header">
                <g id="Nav-Bar-|-Static" transform="translate(79.000000, 38.000000)">
                    <g id="Nav" transform="translate(567.000000, 6.000000)">
                        <g id="search-icon" transform="translate(559.000000, 2.000000)">
                            <path d="M13.8241663,12.9757117 L11.6195295,10.7718205 C11.5972678,10.7495638 11.568657,10.7397612 11.5440646,10.7216827 C13.6907565,8.15750689 13.5628117,4.32245179 11.1534794,1.9136708 C9.91903708,0.679671717 8.27777535,0 6.53227717,0 C4.78661826,0 3.14543689,0.679671717 1.91115534,1.9136708 C-0.637051782,4.46129477 -0.637051782,8.60657713 1.91115534,11.1538797 C3.14543689,12.3882805 4.78661826,13.0679522 6.53227717,13.0679522 C8.08216125,13.0679522 9.54798109,12.529775 10.7214246,11.5458219 C10.7392661,11.5701676 10.7489102,11.5983701 10.7709308,11.6203053 L12.9755676,13.8241965 C13.0927432,13.9413453 13.2463252,14 13.3999071,14 C13.5534891,14 13.7072318,13.9414256 13.8242467,13.8241965 C14.0585978,13.5898186 14.0585978,13.2100895 13.8241663,12.9757117 L13.8241663,12.9757117 Z M6.53227717,11.8679408 C5.1071232,11.8679408 3.76739971,11.3128903 2.75975405,10.3054752 C0.679606286,8.22580349 0.679606286,4.84222911 2.75975405,2.76215565 C3.76739971,1.75466024 5.10720357,1.20001148 6.53227717,1.20001148 C7.95719004,1.20001148 9.29715464,1.75466024 10.3048003,2.7620753 C12.3849481,4.84214876 12.3849481,8.22572314 10.3048003,10.3053949 C9.2969939,11.3128099 7.95727041,11.8679408 6.53227717,11.8679408 L6.53227717,11.8679408 Z" id="Shape"></path>
                        </g>
                    </g>
                </g>
            </g>
        </g>
    </g>
</svg>