<?xml version="1.0" encoding="UTF-8"?>
<svg width="56px" height="54px" viewBox="0 0 56 54" version="1.1" xmlns="http://www.w3.org/2000/svg" xmlns:xlink="http://www.w3.org/1999/xlink">
    <!-- Generator: sketchtool 40.2 (33826) - http://www.bohemiancoding.com/sketch -->
    <title>2E94F316-0D95-4590-9EBE-F73878106EF4</title>
    <desc>Created with sketchtool.</desc>
    <defs></defs>
    <g id="DESIGNS" stroke="none" stroke-width="1" fill="none" fill-rule="evenodd">
        <g id="Pages-|-Design-01" transform="translate(-857.000000, -1184.000000)" stroke-width="2" stroke="#535353">
            <g id="D01_SECTION-3-|-Icon-Summary" transform="translate(0.000000, 1105.000000)">
                <g id="umbrella-icon" transform="translate(860.000000, 79.000000)">
                    <g id="Umbrella">
                        <path d="M12.9170416,31 C12.4409635,33.8377133 9.97299629,36 7,36 C4.02700371,36 1.55903653,33.8377133 1.08295844,31 L1,31 L1,24 L49,24 L49,31 L48.9170416,31 C48.4409635,33.8377133 45.9729963,36 43,36 C40.0270037,36 37.5590365,33.8377133 37.0829584,31 L36.9170416,31 C36.4409635,33.8377133 33.9729963,36 31,36 C28.0270037,36 25.5590365,33.8377133 25.0829584,31 L24.9170416,31 C24.4409635,33.8377133 21.9729963,36 19,36 C16.0270037,36 13.5590365,33.8377133 13.0829584,31 L12.9170416,31 L12.9170416,31 Z" id="Oval-800"></path>
                        <polygon id="Triangle-27" points="25 4 50 24 0 24"></polygon>
                        <path d="M25,4 L25,0" id="Line"></path>
                        <path d="M23,39 L23,54" id="Line"></path>
                        <path d="M27,39 L27,54" id="Line"></path>
                    </g>
                </g>
            </g>
        </g>
    </g>
</svg>